<svg width="45" height="45" viewBox="0 0 45 45" fill="none" xmlns="http://www.w3.org/2000/svg">
<path d="M22.5 0C10.3027 0 0 10.3027 0 22.5C0 34.6973 10.3027 45 22.5 45C34.6973 45 45 34.6973 45 22.5C45 10.3027 34.6973 0 22.5 0ZM22.5 11.25C26.3857 11.25 29.25 14.112 29.25 18C29.25 21.888 26.3857 24.75 22.5 24.75C18.6165 24.75 15.75 21.888 15.75 18C15.75 14.112 18.6165 11.25 22.5 11.25ZM11.0115 33.237C13.0297 30.267 16.3958 28.287 20.25 28.287H24.75C28.6065 28.287 31.9703 30.267 33.9885 33.237C31.113 36.315 27.0338 38.25 22.5 38.25C17.9662 38.25 13.887 36.315 11.0115 33.237Z" fill="#AEDDF1"/>
</svg>
